<svg xmlns="http://www.w3.org/2000/svg" viewBox="0 0 634.07 199.62"><defs><style>.cls-1{fill:#071823;}.cls-2{fill:#ff2c6d;}.cls-3{fill:#21d7ea;}.cls-4{fill:#50d155;}.cls-5{fill:#eac52d;}</style></defs><g id="Layer_2" data-name="Layer 2"><g id="Layer_1-2" data-name="Layer 1"><path class="cls-1" d="M0,126.43H28.29v65.73a6.52,6.52,0,0,0,6.52,6.52h15V126.43H78.07V106.35H0Z"/><path class="cls-1" d="M246.72,171.27a26.06,26.06,0,0,1-4.33,14.53,28.61,28.61,0,0,1-12.88,10.29c-5.37,2.34-12,3.52-19.64,3.52a61.43,61.43,0,0,1-19.52-3.14c-6.42-2.14-11.61-5-15.39-8.53l-1.37-1.15a53.5,53.5,0,0,0,6.61-18.71c13.36,11.79,26.18,11.7,28.44,11.68h.06c5.85.24,11.05-.76,13.73-2.6a5.79,5.79,0,0,0,2.92-5.19,4.17,4.17,0,0,0-1.25-3.34,13.15,13.15,0,0,0-5-3,108.84,108.84,0,0,0-11-3,126.66,126.66,0,0,1-15.69-4.7,29.58,29.58,0,0,1-11.51-8l-.17-.19a19.35,19.35,0,0,1-2.68-3.95,25.42,25.42,0,0,1-2.6-11.83A26.39,26.39,0,0,1,178,122.32a25.56,25.56,0,0,1,1.69-3,19.68,19.68,0,0,1,1.16-1.6A29.82,29.82,0,0,1,192.3,109c8.93-4,22.59-4.9,35.22-1.57a43.56,43.56,0,0,1,13.69,6.15l3.21,2.26-7.12,17.31a47.81,47.81,0,0,0-16.64-6.79c-8.83-2.22-17.23-1.1-20.91,1.58a6.27,6.27,0,0,0-3,5.45,4.18,4.18,0,0,0,1.27,3.33,15,15,0,0,0,5.28,3,101.56,101.56,0,0,0,10.87,3,117.63,117.63,0,0,1,15.67,4.69,30.32,30.32,0,0,1,11.58,8.17C244.94,159.61,246.72,164.85,246.72,171.27Z"/><path class="cls-1" d="M323.8,178.6v20.08H260.62a6.5,6.5,0,0,1-6.51-6.52V106.35h68v20.07H275.72v15.52h35.86v19.85H275.72V178.6Z"/><path class="cls-1" d="M391.89,158.85l-42.24-52.5H332.72v85.81a6.52,6.52,0,0,0,6.51,6.52h15.1v-52.5l40.28,50.07a6.52,6.52,0,0,0,5.08,2.43h13.8V106.35h-21.6Z"/><path class="cls-1" d="M422.4,106.35h63.94v20.08H472.18v72.25h-15a6.52,6.52,0,0,1-6.52-6.52V126.43H422.4Z"/><path class="cls-1" d="M531,106.35v92.33H515.91a6.52,6.52,0,0,1-6.52-6.52V126.43H495.25V106.35Z"/><path class="cls-1" d="M587,125.59a26.92,26.92,0,1,1-26.92,26.92A27,27,0,0,1,587,125.59m0-20.16a47.08,47.08,0,1,0,47.08,47.08A47.08,47.08,0,0,0,587,105.43Z"/><path class="cls-1" d="M166.57,106.36H144.93v53.46a18.16,18.16,0,0,1-36.31,0V106.36H87v53.46h0a39.81,39.81,0,0,0,79.61,0Z"/><path class="cls-2" d="M169.81,65.39h31.9V33.49h0a31.9,31.9,0,0,0-31.9-31.9Z"/><path class="cls-3" d="M300.91,33.49A33.48,33.48,0,0,1,267.42,67h0a33.48,33.48,0,0,1-33.49-33.49Z"/><path class="cls-4" d="M365.05,65.39a31.9,31.9,0,0,1-31.9-31.9h0V1.59h31.9Z"/><path class="cls-5" d="M464.26,33.49A33.48,33.48,0,0,0,430.77,0h0a33.48,33.48,0,0,0-33.49,33.49Z"/></g></g></svg>